<svg width="101" height="101" viewBox="0 0 101 101" fill="none" xmlns="http://www.w3.org/2000/svg">
<path d="M99.808 62.6251L52.2649 0.0200195V33.9371L74.075 62.6251H99.808Z" fill="url(#paint0_linear_203_10462)"/>
<path d="M26.645 62.6251L48.3739 33.9371V0.0200195L0.830811 62.6251H26.645Z" fill="url(#paint1_linear_203_10462)"/>
<path d="M31.3765 62.6247H69.3421L50.3265 37.6152L31.3765 62.6247Z" fill="url(#paint2_linear_203_10462)"/>
<path d="M76.7847 66.1865L100.079 96.8252V66.1865H76.7847Z" fill="url(#paint3_linear_203_10462)"/>
<path d="M72.0435 66.1865H28.6785L3.05371 100.015H97.7611L72.0435 66.1865Z" fill="url(#paint4_linear_203_10462)"/>
<path d="M23.9515 66.1865H0.564453V97.0589L23.9515 66.1865Z" fill="url(#paint5_linear_203_10462)"/>
<defs>
<linearGradient id="paint0_linear_203_10462" x1="76.0364" y1="0.0200195" x2="76.0364" y2="62.6251" gradientUnits="userSpaceOnUse">
<stop stop-color="#2C138F"/>
<stop offset="1" stop-color="#4328AC"/>
</linearGradient>
<linearGradient id="paint1_linear_203_10462" x1="24.6023" y1="0.0200195" x2="24.6023" y2="62.6251" gradientUnits="userSpaceOnUse">
<stop stop-color="#2C138F"/>
<stop offset="1" stop-color="#4328AC"/>
</linearGradient>
<linearGradient id="paint2_linear_203_10462" x1="50.3593" y1="37.6152" x2="50.3593" y2="62.6247" gradientUnits="userSpaceOnUse">
<stop stop-color="#2C138F"/>
<stop offset="1" stop-color="#4328AC"/>
</linearGradient>
<linearGradient id="paint3_linear_203_10462" x1="88.4318" y1="66.1865" x2="88.4318" y2="96.8252" gradientUnits="userSpaceOnUse">
<stop stop-color="#2C138F"/>
<stop offset="1" stop-color="#4328AC"/>
</linearGradient>
<linearGradient id="paint4_linear_203_10462" x1="50.4074" y1="66.1865" x2="50.4074" y2="100.015" gradientUnits="userSpaceOnUse">
<stop stop-color="#2C138F"/>
<stop offset="1" stop-color="#4328AC"/>
</linearGradient>
<linearGradient id="paint5_linear_203_10462" x1="12.258" y1="66.1865" x2="12.258" y2="97.0589" gradientUnits="userSpaceOnUse">
<stop stop-color="#2C138F"/>
<stop offset="1" stop-color="#4328AC"/>
</linearGradient>
</defs>
</svg>
